<?xml version="1.0" standalone="no"?><!DOCTYPE svg PUBLIC "-//W3C//DTD SVG 1.1//EN" "http://www.w3.org/Graphics/SVG/1.1/DTD/svg11.dtd"><svg t="1670833700055" class="icon" viewBox="0 0 1024 1024" version="1.1" xmlns="http://www.w3.org/2000/svg" p-id="3256" width="48" height="48" xmlns:xlink="http://www.w3.org/1999/xlink"><path d="M398.21312 796.44672C178.62656 796.44672 0 617.79968 0 398.21312S178.62656 0 398.21312 0s398.2336 178.62656 398.2336 398.21312-178.64704 398.2336-398.2336 398.2336z m0-682.65984c-156.83584 0-284.44672 127.61088-284.44672 284.44672s127.61088 284.44672 284.44672 284.44672S682.65984 555.008 682.65984 398.21312 555.008 113.78688 398.21312 113.78688zM926.88384 1007.32928l-170.65984-170.65984a56.8832 56.8832 0 0 1 80.44544-80.44544l170.65984 170.65984a56.8832 56.8832 0 1 1-80.44544 80.44544z" p-id="3257" fill="#fc9153"></path></svg>